<mxfile host="app.diagrams.net" modified="2022-02-27T11:29:14.636Z" agent="5.0 (Macintosh; Intel Mac OS X 10_15_7) AppleWebKit/605.1.15 (KHTML, like Gecko) Version/15.3 Safari/605.1.15" etag="F37fF8V5bYiExiVGvX2d" version="16.6.1" type="github">
  <diagram id="z0HHgGlnCuGLutk6PVgF" name="Page-1">
    <mxGraphModel dx="1963" dy="759" grid="1" gridSize="10" guides="1" tooltips="1" connect="1" arrows="1" fold="1" page="1" pageScale="1" pageWidth="850" pageHeight="1100" math="1" shadow="0">
      <root>
        <mxCell id="0" />
        <mxCell id="1" parent="0" />
        <mxCell id="CTJLBTLDGU4M1NpmP4fn-86" value="" style="rounded=0;whiteSpace=wrap;html=1;shadow=0;glass=0;sketch=0;fillColor=#f5f5f5;fontFamily=Georgia;fontColor=#333333;strokeColor=#666666;opacity=50;" parent="1" vertex="1">
          <mxGeometry x="-300" y="220" width="300" height="237" as="geometry" />
        </mxCell>
        <mxCell id="IyFWRD1OJdr2gIB2jrgP-11" value="" style="rounded=0;whiteSpace=wrap;html=1;shadow=0;glass=0;sketch=0;fillColor=#f5f5f5;fontFamily=Georgia;fontColor=#333333;strokeColor=#666666;opacity=50;" parent="1" vertex="1">
          <mxGeometry x="-640" y="220" width="285" height="237" as="geometry" />
        </mxCell>
        <mxCell id="CTJLBTLDGU4M1NpmP4fn-3" style="edgeStyle=orthogonalEdgeStyle;rounded=0;orthogonalLoop=1;jettySize=auto;html=1;entryX=0.5;entryY=1;entryDx=0;entryDy=0;strokeWidth=1.5;endArrow=openThin;endFill=0;exitX=0.5;exitY=0;exitDx=0;exitDy=0;fontFamily=Georgia;" parent="1" source="iIbkzB-FwA6yvQ0Qt3dR-1" target="CTJLBTLDGU4M1NpmP4fn-2" edge="1">
          <mxGeometry relative="1" as="geometry">
            <mxPoint x="-136" y="434.75" as="sourcePoint" />
          </mxGeometry>
        </mxCell>
        <mxCell id="CTJLBTLDGU4M1NpmP4fn-2" value="&lt;font style=&quot;font-size: 13px&quot;&gt;Masked Multi-Head Attention&lt;/font&gt;" style="rounded=1;whiteSpace=wrap;html=1;fillColor=#d5e8d4;strokeColor=#82b366;gradientColor=#97d077;fontFamily=Georgia;" parent="1" vertex="1">
          <mxGeometry x="-231" y="350.75" width="190" height="25" as="geometry" />
        </mxCell>
        <mxCell id="CTJLBTLDGU4M1NpmP4fn-4" value="" style="edgeStyle=elbowEdgeStyle;elbow=horizontal;endArrow=openThin;html=1;strokeWidth=1.5;entryX=1;entryY=0.5;entryDx=0;entryDy=0;endFill=0;fontFamily=Georgia;" parent="1" target="CTJLBTLDGU4M1NpmP4fn-7" edge="1">
          <mxGeometry width="50" height="50" relative="1" as="geometry">
            <mxPoint x="-136" y="393.75" as="sourcePoint" />
            <mxPoint x="-125.99999999998727" y="386.7500000000001" as="targetPoint" />
            <Array as="points">
              <mxPoint x="-27" y="413.75" />
              <mxPoint x="34" y="447.75" />
            </Array>
          </mxGeometry>
        </mxCell>
        <mxCell id="CTJLBTLDGU4M1NpmP4fn-11" style="edgeStyle=orthogonalEdgeStyle;rounded=0;orthogonalLoop=1;jettySize=auto;html=1;exitX=0.5;exitY=0;exitDx=0;exitDy=0;entryX=0.5;entryY=1;entryDx=0;entryDy=0;endArrow=openThin;endFill=0;strokeWidth=1.5;fontFamily=Georgia;" parent="1" source="CTJLBTLDGU4M1NpmP4fn-7" target="CTJLBTLDGU4M1NpmP4fn-10" edge="1">
          <mxGeometry relative="1" as="geometry" />
        </mxCell>
        <mxCell id="CTJLBTLDGU4M1NpmP4fn-7" value="&lt;font style=&quot;font-size: 13px&quot;&gt;Add &amp;amp; LayerNorm&lt;/font&gt;" style="rounded=1;whiteSpace=wrap;html=1;fillColor=#FFD996;strokeColor=#d6b656;fontFamily=Georgia;gradientColor=#FFD966;" parent="1" vertex="1">
          <mxGeometry x="-231" y="325.75" width="190" height="25" as="geometry" />
        </mxCell>
        <mxCell id="CTJLBTLDGU4M1NpmP4fn-14" value="" style="edgeStyle=elbowEdgeStyle;elbow=horizontal;endArrow=openThin;html=1;strokeWidth=1.5;endFill=0;entryX=1;entryY=0.5;entryDx=0;entryDy=0;fontFamily=Georgia;" parent="1" target="CTJLBTLDGU4M1NpmP4fn-15" edge="1">
          <mxGeometry width="50" height="50" relative="1" as="geometry">
            <mxPoint x="-136" y="314.75" as="sourcePoint" />
            <mxPoint x="-125.99999999998727" y="273.75" as="targetPoint" />
            <Array as="points">
              <mxPoint x="-27" y="311.75" />
            </Array>
          </mxGeometry>
        </mxCell>
        <mxCell id="CTJLBTLDGU4M1NpmP4fn-18" style="edgeStyle=orthogonalEdgeStyle;rounded=0;orthogonalLoop=1;jettySize=auto;html=1;exitX=0.5;exitY=0;exitDx=0;exitDy=0;endArrow=openThin;endFill=0;strokeWidth=1.5;fontFamily=Georgia;" parent="1" source="CTJLBTLDGU4M1NpmP4fn-15" target="IyFWRD1OJdr2gIB2jrgP-10" edge="1">
          <mxGeometry relative="1" as="geometry">
            <mxPoint x="-136" y="210" as="targetPoint" />
          </mxGeometry>
        </mxCell>
        <mxCell id="CTJLBTLDGU4M1NpmP4fn-15" value="&lt;span style=&quot;font-size: 13px&quot;&gt;Add &amp;amp; LayerNorm&lt;/span&gt;" style="rounded=1;whiteSpace=wrap;html=1;fillColor=#FFD996;strokeColor=#d6b656;fontFamily=Georgia;gradientColor=#ffd966;" parent="1" vertex="1">
          <mxGeometry x="-231" y="246.75" width="190" height="25" as="geometry" />
        </mxCell>
        <mxCell id="CTJLBTLDGU4M1NpmP4fn-29" value="&lt;span style=&quot;font-size: 14px&quot;&gt;$$\boldsymbol X^{l}_\tau$$&lt;/span&gt;" style="text;html=1;align=center;verticalAlign=middle;resizable=0;points=[];autosize=1;strokeColor=none;fontFamily=Georgia;" parent="1" vertex="1">
          <mxGeometry x="-254" y="224.75" width="200" height="20" as="geometry" />
        </mxCell>
        <mxCell id="CTJLBTLDGU4M1NpmP4fn-10" value="&lt;font style=&quot;font-size: 13px&quot;&gt;Feed Forward Network&lt;/font&gt;" style="rounded=1;whiteSpace=wrap;html=1;fillColor=#f8cecc;strokeColor=#b85450;fontFamily=Georgia;" parent="1" vertex="1">
          <mxGeometry x="-231" y="271.75" width="190" height="25" as="geometry" />
        </mxCell>
        <mxCell id="CTJLBTLDGU4M1NpmP4fn-75" style="edgeStyle=none;rounded=0;orthogonalLoop=1;jettySize=auto;html=1;exitX=0.5;exitY=0;exitDx=0;exitDy=0;entryX=0.5;entryY=1;entryDx=0;entryDy=0;endArrow=openThin;endFill=0;strokeWidth=1.5;fontFamily=Georgia;" parent="1" source="CTJLBTLDGU4M1NpmP4fn-62" target="CTJLBTLDGU4M1NpmP4fn-72" edge="1">
          <mxGeometry relative="1" as="geometry" />
        </mxCell>
        <mxCell id="CTJLBTLDGU4M1NpmP4fn-62" value="&lt;font style=&quot;font-size: 13px;&quot;&gt;Word Embedding&lt;/font&gt;" style="rounded=1;whiteSpace=wrap;html=1;fillColor=#cce5ff;strokeColor=#36393d;fontSize=13;fontFamily=Georgia;" parent="1" vertex="1">
          <mxGeometry x="-196" y="513.5" width="120" height="25" as="geometry" />
        </mxCell>
        <mxCell id="CTJLBTLDGU4M1NpmP4fn-64" value="" style="endArrow=openThin;html=1;strokeWidth=1.5;entryX=0.5;entryY=1;entryDx=0;entryDy=0;endFill=0;fontFamily=Georgia;" parent="1" target="CTJLBTLDGU4M1NpmP4fn-62" edge="1">
          <mxGeometry width="50" height="50" relative="1" as="geometry">
            <mxPoint x="-136" y="557.5" as="sourcePoint" />
            <mxPoint x="-136.00000000000023" y="559.5" as="targetPoint" />
          </mxGeometry>
        </mxCell>
        <mxCell id="CTJLBTLDGU4M1NpmP4fn-90" style="edgeStyle=none;rounded=0;orthogonalLoop=1;jettySize=auto;html=1;exitX=1;exitY=0.5;exitDx=0;exitDy=0;entryX=0;entryY=0.5;entryDx=0;entryDy=0;endArrow=openThin;endFill=0;strokeWidth=1.5;fontFamily=Georgia;" parent="1" source="CTJLBTLDGU4M1NpmP4fn-65" target="CTJLBTLDGU4M1NpmP4fn-72" edge="1">
          <mxGeometry relative="1" as="geometry" />
        </mxCell>
        <mxCell id="CTJLBTLDGU4M1NpmP4fn-65" value="" style="ellipse;whiteSpace=wrap;html=1;aspect=fixed;rounded=0;shadow=0;glass=0;sketch=0;strokeColor=#000000;fillColor=none;gradientColor=none;fontFamily=Georgia;" parent="1" vertex="1">
          <mxGeometry x="-203" y="471.75" width="25" height="25" as="geometry" />
        </mxCell>
        <mxCell id="CTJLBTLDGU4M1NpmP4fn-69" value="" style="curved=1;endArrow=none;html=1;strokeWidth=1;exitX=0;exitY=0.5;exitDx=0;exitDy=0;entryX=1;entryY=0.5;entryDx=0;entryDy=0;endFill=0;fontFamily=Georgia;" parent="1" source="CTJLBTLDGU4M1NpmP4fn-65" target="CTJLBTLDGU4M1NpmP4fn-65" edge="1">
          <mxGeometry width="50" height="50" relative="1" as="geometry">
            <mxPoint x="-193" y="526.25" as="sourcePoint" />
            <mxPoint x="-143" y="476.25" as="targetPoint" />
            <Array as="points">
              <mxPoint x="-193" y="471.5" />
              <mxPoint x="-187" y="500.5" />
            </Array>
          </mxGeometry>
        </mxCell>
        <mxCell id="CTJLBTLDGU4M1NpmP4fn-71" value="&lt;font style=&quot;font-size: 14px&quot;&gt;Positional&lt;br&gt;Encoding&lt;/font&gt;" style="text;html=1;align=center;verticalAlign=middle;resizable=0;points=[];autosize=1;strokeColor=none;fontFamily=Georgia;" parent="1" vertex="1">
          <mxGeometry x="-283" y="466" width="80" height="40" as="geometry" />
        </mxCell>
        <mxCell id="CTJLBTLDGU4M1NpmP4fn-81" style="edgeStyle=none;rounded=0;orthogonalLoop=1;jettySize=auto;html=1;exitX=0.5;exitY=0;exitDx=0;exitDy=0;endArrow=openThin;endFill=0;strokeWidth=1.5;fontFamily=Georgia;entryX=0.5;entryY=1;entryDx=0;entryDy=0;" parent="1" source="CTJLBTLDGU4M1NpmP4fn-72" target="iIbkzB-FwA6yvQ0Qt3dR-1" edge="1">
          <mxGeometry relative="1" as="geometry">
            <mxPoint x="-100" y="480" as="targetPoint" />
          </mxGeometry>
        </mxCell>
        <mxCell id="CTJLBTLDGU4M1NpmP4fn-72" value="" style="shape=orEllipse;perimeter=ellipsePerimeter;whiteSpace=wrap;html=1;backgroundOutline=1;fillColor=#f5f5f5;strokeColor=#666666;fontColor=#333333;fontFamily=Georgia;" parent="1" vertex="1">
          <mxGeometry x="-148.5" y="471" width="25" height="25" as="geometry" />
        </mxCell>
        <mxCell id="CTJLBTLDGU4M1NpmP4fn-84" value="&lt;font style=&quot;font-size: 22px&quot;&gt;Ã—N&lt;/font&gt;" style="text;html=1;align=center;verticalAlign=middle;resizable=0;points=[];autosize=1;strokeColor=none;fontFamily=Georgia;" parent="1" vertex="1">
          <mxGeometry y="328.5" width="50" height="20" as="geometry" />
        </mxCell>
        <mxCell id="CTJLBTLDGU4M1NpmP4fn-92" value="&lt;font style=&quot;font-size: 22px&quot;&gt;LSTM-Transformer LM&lt;/font&gt;" style="text;html=1;align=center;verticalAlign=middle;resizable=0;points=[];autosize=1;strokeColor=none;fontFamily=Georgia;" parent="1" vertex="1">
          <mxGeometry x="-460" y="610" width="250" height="20" as="geometry" />
        </mxCell>
        <mxCell id="IyFWRD1OJdr2gIB2jrgP-5" style="edgeStyle=orthogonalEdgeStyle;rounded=0;orthogonalLoop=1;jettySize=auto;html=1;exitX=1;exitY=0.5;exitDx=0;exitDy=0;fontSize=11;endArrow=openThin;endFill=0;strokeWidth=1.5;dashed=1;jumpSize=0;" parent="1" source="iIbkzB-FwA6yvQ0Qt3dR-1" edge="1">
          <mxGeometry relative="1" as="geometry">
            <mxPoint x="40" y="418" as="targetPoint" />
          </mxGeometry>
        </mxCell>
        <mxCell id="iIbkzB-FwA6yvQ0Qt3dR-1" value="&lt;font style=&quot;font-size: 13px&quot;&gt;LSTM&lt;/font&gt;" style="rounded=1;whiteSpace=wrap;html=1;fillColor=#dae8fc;strokeColor=#6c8ebf;gradientColor=#7ea6e0;fontFamily=Georgia;" parent="1" vertex="1">
          <mxGeometry x="-231" y="405.25" width="190" height="25" as="geometry" />
        </mxCell>
        <mxCell id="iIbkzB-FwA6yvQ0Qt3dR-6" value="" style="endArrow=openThin;html=1;rounded=0;fontSize=12;strokeWidth=1.5;endFill=0;entryX=0;entryY=0.5;entryDx=0;entryDy=0;fontFamily=Georgia;edgeStyle=orthogonalEdgeStyle;dashed=1;" parent="1" target="CTJLBTLDGU4M1NpmP4fn-2" edge="1">
          <mxGeometry width="50" height="50" relative="1" as="geometry">
            <mxPoint x="-330" y="417" as="sourcePoint" />
            <mxPoint x="-231" y="360.25" as="targetPoint" />
            <Array as="points">
              <mxPoint x="-330" y="417" />
              <mxPoint x="-330" y="363" />
            </Array>
          </mxGeometry>
        </mxCell>
        <mxCell id="iIbkzB-FwA6yvQ0Qt3dR-7" value="" style="endArrow=openThin;html=1;rounded=0;fontSize=12;strokeWidth=1.5;exitX=1;exitY=0.5;exitDx=0;exitDy=0;endFill=0;entryX=0;entryY=0.5;entryDx=0;entryDy=0;fontFamily=Georgia;dashed=1;" parent="1" target="iIbkzB-FwA6yvQ0Qt3dR-1" edge="1" source="IyFWRD1OJdr2gIB2jrgP-33">
          <mxGeometry width="50" height="50" relative="1" as="geometry">
            <mxPoint x="-296" y="417.74" as="sourcePoint" />
            <mxPoint x="-227" y="417.75" as="targetPoint" />
          </mxGeometry>
        </mxCell>
        <mxCell id="iIbkzB-FwA6yvQ0Qt3dR-8" value="$$\boldsymbol H^l_{\tau-1}$$" style="text;html=1;align=center;verticalAlign=middle;resizable=0;points=[];autosize=1;strokeColor=none;fillColor=none;fontSize=12;fontFamily=Georgia;" parent="1" vertex="1">
          <mxGeometry x="-352" y="341.75" width="190" height="20" as="geometry" />
        </mxCell>
        <mxCell id="iIbkzB-FwA6yvQ0Qt3dR-9" value="$$\boldsymbol &lt;br&gt;h^l_{\tau-1}$$" style="text;html=1;align=center;verticalAlign=middle;resizable=0;points=[];autosize=1;strokeColor=none;fillColor=none;fontSize=12;fontFamily=Georgia;" parent="1" vertex="1">
          <mxGeometry x="-307" y="391.75" width="100" height="30" as="geometry" />
        </mxCell>
        <mxCell id="iIbkzB-FwA6yvQ0Qt3dR-11" value="$$\boldsymbol H^l_{\tau}$$" style="text;html=1;align=center;verticalAlign=middle;resizable=0;points=[];autosize=1;strokeColor=none;fillColor=none;fontSize=12;fontFamily=Georgia;" parent="1" vertex="1">
          <mxGeometry x="-244" y="379.75" width="180" height="20" as="geometry" />
        </mxCell>
        <mxCell id="iIbkzB-FwA6yvQ0Qt3dR-12" value="$$\boldsymbol X^{l-1}_{\tau}$$" style="text;html=1;align=center;verticalAlign=middle;resizable=0;points=[];autosize=1;strokeColor=none;fillColor=none;fontSize=12;fontFamily=Georgia;" parent="1" vertex="1">
          <mxGeometry x="-254" y="434.25" width="200" height="20" as="geometry" />
        </mxCell>
        <mxCell id="IyFWRD1OJdr2gIB2jrgP-1" value="$$\boldsymbol W_{\tau}$$" style="text;html=1;align=center;verticalAlign=middle;resizable=0;points=[];autosize=1;strokeColor=none;fillColor=none;fontSize=12;fontFamily=Georgia;" parent="1" vertex="1">
          <mxGeometry x="-218" y="557.5" width="170" height="20" as="geometry" />
        </mxCell>
        <mxCell id="IyFWRD1OJdr2gIB2jrgP-2" value="&lt;font style=&quot;font-size: 11px&quot;&gt;1&lt;/font&gt;" style="ellipse;whiteSpace=wrap;html=1;aspect=fixed;" parent="1" vertex="1">
          <mxGeometry x="-162" y="557.5" width="15" height="15" as="geometry" />
        </mxCell>
        <mxCell id="IyFWRD1OJdr2gIB2jrgP-3" value="&lt;font style=&quot;font-size: 11px&quot;&gt;3&lt;/font&gt;" style="ellipse;whiteSpace=wrap;html=1;aspect=fixed;" parent="1" vertex="1">
          <mxGeometry x="-290" y="344.25" width="15" height="15" as="geometry" />
        </mxCell>
        <mxCell id="IyFWRD1OJdr2gIB2jrgP-4" value="&lt;font style=&quot;font-size: 11px&quot;&gt;2&lt;/font&gt;" style="ellipse;whiteSpace=wrap;html=1;aspect=fixed;" parent="1" vertex="1">
          <mxGeometry x="-290" y="399.25" width="15" height="15" as="geometry" />
        </mxCell>
        <mxCell id="IyFWRD1OJdr2gIB2jrgP-7" value="$$\boldsymbol h^l_{\tau}, &lt;br&gt;\boldsymbol H^l_{\tau}$$" style="text;html=1;align=center;verticalAlign=middle;resizable=0;points=[];autosize=1;strokeColor=none;fillColor=none;fontSize=12;" parent="1" vertex="1">
          <mxGeometry x="-76" y="384.25" width="150" height="30" as="geometry" />
        </mxCell>
        <mxCell id="IyFWRD1OJdr2gIB2jrgP-10" value="&lt;span style=&quot;font-size: 13px;&quot;&gt;Output Layer&lt;/span&gt;" style="rounded=1;whiteSpace=wrap;html=1;fillColor=#e1d5e7;strokeColor=#9673a6;fontSize=13;fontFamily=Georgia;" parent="1" vertex="1">
          <mxGeometry x="-192.75" y="183" width="113.5" height="25" as="geometry" />
        </mxCell>
        <mxCell id="IyFWRD1OJdr2gIB2jrgP-12" style="edgeStyle=orthogonalEdgeStyle;rounded=0;orthogonalLoop=1;jettySize=auto;html=1;entryX=0.5;entryY=1;entryDx=0;entryDy=0;strokeWidth=1.5;endArrow=openThin;endFill=0;exitX=0.5;exitY=0;exitDx=0;exitDy=0;fontFamily=Georgia;" parent="1" source="IyFWRD1OJdr2gIB2jrgP-33" target="IyFWRD1OJdr2gIB2jrgP-13" edge="1">
          <mxGeometry relative="1" as="geometry">
            <mxPoint x="-491" y="434.75" as="sourcePoint" />
          </mxGeometry>
        </mxCell>
        <mxCell id="IyFWRD1OJdr2gIB2jrgP-13" value="&lt;font style=&quot;font-size: 13px&quot;&gt;Masked Multi-Head Attention&lt;/font&gt;" style="rounded=1;whiteSpace=wrap;html=1;fillColor=#d5e8d4;strokeColor=#82b366;gradientColor=#97d077;fontFamily=Georgia;" parent="1" vertex="1">
          <mxGeometry x="-586" y="350.75" width="190" height="25" as="geometry" />
        </mxCell>
        <mxCell id="IyFWRD1OJdr2gIB2jrgP-14" value="" style="edgeStyle=elbowEdgeStyle;elbow=horizontal;endArrow=openThin;html=1;strokeWidth=1.5;entryX=1;entryY=0.5;entryDx=0;entryDy=0;endFill=0;fontFamily=Georgia;" parent="1" target="IyFWRD1OJdr2gIB2jrgP-16" edge="1">
          <mxGeometry width="50" height="50" relative="1" as="geometry">
            <mxPoint x="-491" y="393.75" as="sourcePoint" />
            <mxPoint x="-480.99999999998727" y="386.7500000000001" as="targetPoint" />
            <Array as="points">
              <mxPoint x="-382" y="413.75" />
              <mxPoint x="-321" y="447.75" />
            </Array>
          </mxGeometry>
        </mxCell>
        <mxCell id="IyFWRD1OJdr2gIB2jrgP-15" style="edgeStyle=orthogonalEdgeStyle;rounded=0;orthogonalLoop=1;jettySize=auto;html=1;exitX=0.5;exitY=0;exitDx=0;exitDy=0;entryX=0.5;entryY=1;entryDx=0;entryDy=0;endArrow=openThin;endFill=0;strokeWidth=1.5;fontFamily=Georgia;" parent="1" source="IyFWRD1OJdr2gIB2jrgP-16" target="IyFWRD1OJdr2gIB2jrgP-21" edge="1">
          <mxGeometry relative="1" as="geometry" />
        </mxCell>
        <mxCell id="IyFWRD1OJdr2gIB2jrgP-16" value="&lt;font style=&quot;font-size: 13px&quot;&gt;Add &amp;amp; LayerNorm&lt;/font&gt;" style="rounded=1;whiteSpace=wrap;html=1;fillColor=#FFD996;strokeColor=#d6b656;fontFamily=Georgia;gradientColor=#FFD966;" parent="1" vertex="1">
          <mxGeometry x="-586" y="325.75" width="190" height="25" as="geometry" />
        </mxCell>
        <mxCell id="IyFWRD1OJdr2gIB2jrgP-17" value="" style="edgeStyle=elbowEdgeStyle;elbow=horizontal;endArrow=openThin;html=1;strokeWidth=1.5;endFill=0;entryX=1;entryY=0.5;entryDx=0;entryDy=0;fontFamily=Georgia;" parent="1" target="IyFWRD1OJdr2gIB2jrgP-19" edge="1">
          <mxGeometry width="50" height="50" relative="1" as="geometry">
            <mxPoint x="-491" y="314.75" as="sourcePoint" />
            <mxPoint x="-480.99999999998727" y="273.75" as="targetPoint" />
            <Array as="points">
              <mxPoint x="-382" y="311.75" />
            </Array>
          </mxGeometry>
        </mxCell>
        <mxCell id="IyFWRD1OJdr2gIB2jrgP-18" style="edgeStyle=orthogonalEdgeStyle;rounded=0;orthogonalLoop=1;jettySize=auto;html=1;exitX=0.5;exitY=0;exitDx=0;exitDy=0;endArrow=openThin;endFill=0;strokeWidth=1.5;fontFamily=Georgia;" parent="1" source="IyFWRD1OJdr2gIB2jrgP-19" target="IyFWRD1OJdr2gIB2jrgP-45" edge="1">
          <mxGeometry relative="1" as="geometry">
            <mxPoint x="-491" y="210" as="targetPoint" />
          </mxGeometry>
        </mxCell>
        <mxCell id="IyFWRD1OJdr2gIB2jrgP-19" value="&lt;span style=&quot;font-size: 13px&quot;&gt;Add &amp;amp; LayerNorm&lt;/span&gt;" style="rounded=1;whiteSpace=wrap;html=1;fillColor=#FFD996;strokeColor=#d6b656;fontFamily=Georgia;gradientColor=#ffd966;" parent="1" vertex="1">
          <mxGeometry x="-586" y="246.75" width="190" height="25" as="geometry" />
        </mxCell>
        <mxCell id="IyFWRD1OJdr2gIB2jrgP-20" value="&lt;span style=&quot;font-size: 14px&quot;&gt;$$\boldsymbol X^{l}_{\tau-1}$$&lt;/span&gt;" style="text;html=1;align=center;verticalAlign=middle;resizable=0;points=[];autosize=1;strokeColor=none;fontFamily=Georgia;" parent="1" vertex="1">
          <mxGeometry x="-624" y="224.75" width="230" height="20" as="geometry" />
        </mxCell>
        <mxCell id="IyFWRD1OJdr2gIB2jrgP-21" value="&lt;font style=&quot;font-size: 13px&quot;&gt;Feed Forward Network&lt;/font&gt;" style="rounded=1;whiteSpace=wrap;html=1;fillColor=#f8cecc;strokeColor=#b85450;fontFamily=Georgia;" parent="1" vertex="1">
          <mxGeometry x="-586" y="271.75" width="190" height="25" as="geometry" />
        </mxCell>
        <mxCell id="IyFWRD1OJdr2gIB2jrgP-22" style="edgeStyle=none;rounded=0;orthogonalLoop=1;jettySize=auto;html=1;exitX=0.5;exitY=0;exitDx=0;exitDy=0;entryX=0.5;entryY=1;entryDx=0;entryDy=0;endArrow=openThin;endFill=0;strokeWidth=1.5;fontFamily=Georgia;" parent="1" source="IyFWRD1OJdr2gIB2jrgP-23" target="IyFWRD1OJdr2gIB2jrgP-30" edge="1">
          <mxGeometry relative="1" as="geometry" />
        </mxCell>
        <mxCell id="IyFWRD1OJdr2gIB2jrgP-23" value="&lt;font style=&quot;font-size: 13px;&quot;&gt;Word Embedding&lt;/font&gt;" style="rounded=1;whiteSpace=wrap;html=1;fillColor=#cce5ff;strokeColor=#36393d;fontSize=13;fontFamily=Georgia;" parent="1" vertex="1">
          <mxGeometry x="-551" y="513.5" width="120" height="25" as="geometry" />
        </mxCell>
        <mxCell id="IyFWRD1OJdr2gIB2jrgP-24" value="" style="endArrow=openThin;html=1;strokeWidth=1.5;entryX=0.5;entryY=1;entryDx=0;entryDy=0;endFill=0;fontFamily=Georgia;" parent="1" target="IyFWRD1OJdr2gIB2jrgP-23" edge="1">
          <mxGeometry width="50" height="50" relative="1" as="geometry">
            <mxPoint x="-491" y="557.5" as="sourcePoint" />
            <mxPoint x="-491.0000000000002" y="559.5" as="targetPoint" />
          </mxGeometry>
        </mxCell>
        <mxCell id="IyFWRD1OJdr2gIB2jrgP-25" style="edgeStyle=none;rounded=0;orthogonalLoop=1;jettySize=auto;html=1;exitX=1;exitY=0.5;exitDx=0;exitDy=0;entryX=0;entryY=0.5;entryDx=0;entryDy=0;endArrow=openThin;endFill=0;strokeWidth=1.5;fontFamily=Georgia;" parent="1" source="IyFWRD1OJdr2gIB2jrgP-26" target="IyFWRD1OJdr2gIB2jrgP-30" edge="1">
          <mxGeometry relative="1" as="geometry" />
        </mxCell>
        <mxCell id="IyFWRD1OJdr2gIB2jrgP-26" value="" style="ellipse;whiteSpace=wrap;html=1;aspect=fixed;rounded=0;shadow=0;glass=0;sketch=0;strokeColor=#000000;fillColor=none;gradientColor=none;fontFamily=Georgia;" parent="1" vertex="1">
          <mxGeometry x="-558" y="471.75" width="25" height="25" as="geometry" />
        </mxCell>
        <mxCell id="IyFWRD1OJdr2gIB2jrgP-27" value="" style="curved=1;endArrow=none;html=1;strokeWidth=1;exitX=0;exitY=0.5;exitDx=0;exitDy=0;entryX=1;entryY=0.5;entryDx=0;entryDy=0;endFill=0;fontFamily=Georgia;" parent="1" source="IyFWRD1OJdr2gIB2jrgP-26" target="IyFWRD1OJdr2gIB2jrgP-26" edge="1">
          <mxGeometry width="50" height="50" relative="1" as="geometry">
            <mxPoint x="-548" y="526.25" as="sourcePoint" />
            <mxPoint x="-498" y="476.25" as="targetPoint" />
            <Array as="points">
              <mxPoint x="-548" y="471.5" />
              <mxPoint x="-542" y="500.5" />
            </Array>
          </mxGeometry>
        </mxCell>
        <mxCell id="IyFWRD1OJdr2gIB2jrgP-28" value="&lt;font style=&quot;font-size: 14px&quot;&gt;Positional&lt;br&gt;Encoding&lt;/font&gt;" style="text;html=1;align=center;verticalAlign=middle;resizable=0;points=[];autosize=1;strokeColor=none;fontFamily=Georgia;" parent="1" vertex="1">
          <mxGeometry x="-638" y="466" width="80" height="40" as="geometry" />
        </mxCell>
        <mxCell id="IyFWRD1OJdr2gIB2jrgP-29" style="edgeStyle=none;rounded=0;orthogonalLoop=1;jettySize=auto;html=1;exitX=0.5;exitY=0;exitDx=0;exitDy=0;endArrow=openThin;endFill=0;strokeWidth=1.5;fontFamily=Georgia;entryX=0.5;entryY=1;entryDx=0;entryDy=0;" parent="1" source="IyFWRD1OJdr2gIB2jrgP-30" target="IyFWRD1OJdr2gIB2jrgP-33" edge="1">
          <mxGeometry relative="1" as="geometry">
            <mxPoint x="-455" y="480" as="targetPoint" />
          </mxGeometry>
        </mxCell>
        <mxCell id="IyFWRD1OJdr2gIB2jrgP-30" value="" style="shape=orEllipse;perimeter=ellipsePerimeter;whiteSpace=wrap;html=1;backgroundOutline=1;fillColor=#f5f5f5;strokeColor=#666666;fontColor=#333333;fontFamily=Georgia;" parent="1" vertex="1">
          <mxGeometry x="-503.5" y="471" width="25" height="25" as="geometry" />
        </mxCell>
        <mxCell id="IyFWRD1OJdr2gIB2jrgP-31" value="&lt;font style=&quot;font-size: 22px&quot;&gt;NÃ—&lt;/font&gt;" style="text;html=1;align=center;verticalAlign=middle;resizable=0;points=[];autosize=1;strokeColor=none;fontFamily=Georgia;" parent="1" vertex="1">
          <mxGeometry x="-700" y="330.75" width="50" height="20" as="geometry" />
        </mxCell>
        <mxCell id="IyFWRD1OJdr2gIB2jrgP-33" value="&lt;font style=&quot;font-size: 13px&quot;&gt;LSTM&lt;/font&gt;" style="rounded=1;whiteSpace=wrap;html=1;fillColor=#dae8fc;strokeColor=#6c8ebf;gradientColor=#7ea6e0;fontFamily=Georgia;" parent="1" vertex="1">
          <mxGeometry x="-586" y="405.25" width="190" height="25" as="geometry" />
        </mxCell>
        <mxCell id="IyFWRD1OJdr2gIB2jrgP-34" value="" style="endArrow=openThin;html=1;rounded=0;fontSize=12;strokeWidth=1.5;endFill=0;exitX=0.294;exitY=1.03;exitDx=0;exitDy=0;exitPerimeter=0;entryX=0;entryY=0.5;entryDx=0;entryDy=0;fontFamily=Georgia;dashed=1;" parent="1" source="IyFWRD1OJdr2gIB2jrgP-36" target="IyFWRD1OJdr2gIB2jrgP-13" edge="1">
          <mxGeometry width="50" height="50" relative="1" as="geometry">
            <mxPoint x="-632" y="362.87" as="sourcePoint" />
            <mxPoint x="-602" y="363.75" as="targetPoint" />
          </mxGeometry>
        </mxCell>
        <mxCell id="IyFWRD1OJdr2gIB2jrgP-35" value="" style="endArrow=openThin;html=1;rounded=0;fontSize=12;strokeWidth=1.5;exitX=0.07;exitY=0.883;exitDx=0;exitDy=0;exitPerimeter=0;endFill=0;entryX=0;entryY=0.5;entryDx=0;entryDy=0;fontFamily=Georgia;dashed=1;" parent="1" target="IyFWRD1OJdr2gIB2jrgP-33" edge="1">
          <mxGeometry width="50" height="50" relative="1" as="geometry">
            <mxPoint x="-651" y="417.74" as="sourcePoint" />
            <mxPoint x="-582" y="417.75" as="targetPoint" />
          </mxGeometry>
        </mxCell>
        <mxCell id="IyFWRD1OJdr2gIB2jrgP-36" value="$$\boldsymbol H^l_{\tau-2}$$" style="text;html=1;align=center;verticalAlign=middle;resizable=0;points=[];autosize=1;strokeColor=none;fillColor=none;fontSize=12;fontFamily=Georgia;" parent="1" vertex="1">
          <mxGeometry x="-707" y="341.75" width="190" height="20" as="geometry" />
        </mxCell>
        <mxCell id="IyFWRD1OJdr2gIB2jrgP-37" value="$$\boldsymbol &lt;br&gt;h^l_{\tau-2}$$" style="text;html=1;align=center;verticalAlign=middle;resizable=0;points=[];autosize=1;strokeColor=none;fillColor=none;fontSize=12;fontFamily=Georgia;" parent="1" vertex="1">
          <mxGeometry x="-662" y="391.75" width="100" height="30" as="geometry" />
        </mxCell>
        <mxCell id="IyFWRD1OJdr2gIB2jrgP-38" value="$$\boldsymbol H^l_{\tau-1}$$" style="text;html=1;align=center;verticalAlign=middle;resizable=0;points=[];autosize=1;strokeColor=none;fillColor=none;fontSize=12;fontFamily=Georgia;" parent="1" vertex="1">
          <mxGeometry x="-604" y="379.75" width="190" height="20" as="geometry" />
        </mxCell>
        <mxCell id="IyFWRD1OJdr2gIB2jrgP-39" value="$$\boldsymbol X^{l-1}_{\tau-1}$$" style="text;html=1;align=center;verticalAlign=middle;resizable=0;points=[];autosize=1;strokeColor=none;fillColor=none;fontSize=12;fontFamily=Georgia;" parent="1" vertex="1">
          <mxGeometry x="-614" y="434.25" width="210" height="20" as="geometry" />
        </mxCell>
        <mxCell id="IyFWRD1OJdr2gIB2jrgP-40" value="$$\boldsymbol W_{\tau-1}$$" style="text;html=1;align=center;verticalAlign=middle;resizable=0;points=[];autosize=1;strokeColor=none;fillColor=none;fontSize=12;fontFamily=Georgia;" parent="1" vertex="1">
          <mxGeometry x="-576" y="556" width="180" height="20" as="geometry" />
        </mxCell>
        <mxCell id="IyFWRD1OJdr2gIB2jrgP-41" value="&lt;font style=&quot;font-size: 11px&quot;&gt;1&lt;/font&gt;" style="ellipse;whiteSpace=wrap;html=1;aspect=fixed;" parent="1" vertex="1">
          <mxGeometry x="-520" y="557.5" width="15" height="15" as="geometry" />
        </mxCell>
        <mxCell id="IyFWRD1OJdr2gIB2jrgP-45" value="&lt;span style=&quot;font-size: 13px;&quot;&gt;Output Layer&lt;/span&gt;" style="rounded=1;whiteSpace=wrap;html=1;fillColor=#e1d5e7;strokeColor=#9673a6;fontSize=13;fontFamily=Georgia;" parent="1" vertex="1">
          <mxGeometry x="-547.75" y="183" width="113.5" height="25" as="geometry" />
        </mxCell>
      </root>
    </mxGraphModel>
  </diagram>
</mxfile>
